<svg height="1024" width="1024" xmlns="http://www.w3.org/2000/svg" xmlns:xlink="http://www.w3.org/1999/xlink" version="1.1" x="0px" y="0px" viewBox="0 0 100 100"><g><g><path fill="#222" d="M33.571,44.452l-4.17,0.009c-1.43-0.009-2.583,1.162-2.583,2.585v4.185c0,1.429,1.162,2.583,2.583,2.577l4.177,0.006 c1.441-0.006,2.596-1.161,2.596-2.583v-4.185C36.164,45.614,35.012,44.452,33.571,44.452z"></path><path fill="#222" d="M45.847,68.435l-4.185-0.007c-1.43,0-2.569,1.162-2.578,2.584l0.009,4.19c0,1.423,1.147,2.579,2.577,2.579h4.185 c1.431,0,2.576-1.156,2.585-2.586v-4.193C48.431,69.59,47.275,68.428,45.847,68.435z"></path><path fill="#222" d="M33.578,56.454l-4.167-0.011c-1.431,0.011-2.593,1.162-2.603,2.587l0.02,4.191c0,1.421,1.152,2.578,2.583,2.578h4.177 c1.432,0,2.586-1.157,2.586-2.586V59.03C36.174,57.605,35.02,56.443,33.578,56.454z"></path><path fill="#222" d="M41.654,44.452c-1.428,0-2.579,1.162-2.579,2.594v4.185c0,1.422,1.157,2.577,2.587,2.583l4.176-0.006 c1.43-0.008,2.584-1.162,2.584-2.593l0.009-4.177c-0.009-1.429-1.17-2.586-2.603-2.586H41.654z"></path><path fill="#222" d="M33.588,68.428l-4.177,0.007c-1.422,0-2.583,1.155-2.583,2.584l0.008,4.192c-0.008,1.425,1.153,2.57,2.584,2.579 l4.176-0.009c1.438,0,2.578-1.156,2.578-2.579v-4.19C36.184,69.59,35.02,68.435,33.588,68.428z"></path><path fill="#222" d="M41.662,65.79l4.176,0.01c1.43-0.01,2.593-1.166,2.584-2.586l0.009-4.196c0-1.418-1.155-2.583-2.593-2.574l-4.176,0.011 c-1.43-0.011-2.578,1.146-2.578,2.576l-0.009,4.184C39.084,64.643,40.232,65.8,41.662,65.79z"></path><path fill="#222" d="M72.455,44.461h-4.191c-1.424,0-2.577,1.162-2.577,2.595v10.987c0.008,1.421,1.161,2.583,2.584,2.583h4.19 c1.424,0,2.58-1.162,2.58-2.583V47.046C75.041,45.623,73.878,44.452,72.455,44.461z"></path><path fill="#222" d="M29.447,35.615h42.957c1.43,0,2.586-1.154,2.586-2.584l-0.008-10.417c0-1.413-1.148-2.585-2.578-2.577l-42.957-0.008 c-1.431,0-2.588,1.161-2.588,2.585v10.417C26.859,34.453,28.024,35.615,29.447,35.615z"></path><path fill="#222" d="M53.914,53.808l4.182-0.008c1.431,0,2.589-1.154,2.589-2.585v-4.177c-0.011-1.429-1.167-2.586-2.599-2.586l-4.181-0.007 c-1.423,0.007-2.579,1.169-2.579,2.584v4.186C51.326,52.646,52.491,53.808,53.914,53.808z"></path><path fill="#222" d="M58.096,56.435l-4.182,0.009c-1.423,0-2.588,1.156-2.578,2.587v4.184c0,1.42,1.155,2.576,2.578,2.576l4.182-0.01 c1.422,0,2.589-1.153,2.589-2.566V59.03C60.685,57.6,59.518,56.427,58.096,56.435z"></path><path fill="#222" d="M58.104,68.428l-4.184-0.01c-1.43,0.01-2.579,1.163-2.585,2.584l0.006,4.193c-0.006,1.424,1.158,2.586,2.588,2.586h4.184 c1.422-0.008,2.574-1.156,2.574-2.586l-0.003-4.184C60.688,69.571,59.526,68.428,58.104,68.428z"></path><path fill="#222" d="M78.067,6.172L23.73,6.197c-4.688,0-8.509,3.816-8.526,8.511l0.026,69.533c0.016,4.712,3.84,8.535,8.532,8.527 c-0.009,0,54.323-0.02,54.323-0.02c2.294-0.008,4.443-0.894,6.05-2.518c1.604-1.605,2.484-3.75,2.476-6.024 c0,0.009-0.022-69.519-0.022-69.519c0.007-2.265-0.878-4.409-2.485-6.022C82.487,7.052,80.345,6.164,78.067,6.172z M80.187,86.307 c-0.561,0.561-1.305,0.87-2.109,0.879l-54.323,0.008c-1.621,0.01-2.942-1.322-2.952-2.961c0,0.009-0.026-69.517-0.026-69.517 c0.009-1.619,1.333-2.952,2.955-2.952l54.337-0.027c0.797,0,1.54,0.311,2.093,0.861c0.553,0.562,0.862,1.298,0.855,2.091 l0.025,69.527C81.05,85.01,80.737,85.746,80.187,86.307z"></path></g></g></svg>