<svg height="1024" width="1024" xmlns="http://www.w3.org/2000/svg" xmlns:xlink="http://www.w3.org/1999/xlink" version="1.1" x="0px" y="0px" viewBox="0 0 100 100"><g><path fill="#222" d="M26.35,39.393c-1.025-0.026-2.034,0.221-2.934,0.709c-1.096,0.601-2.05,1.423-2.801,2.418 c-0.783,1.035-1.387,2.196-1.785,3.426c-0.459,1.424-0.71,2.906-0.747,4.396c-0.034,1.488,0.146,2.976,0.538,4.421 c0.34,1.248,0.888,2.438,1.619,3.506c0.705,1.035,1.62,1.904,2.686,2.551c0.875,0.527,1.87,0.822,2.895,0.848 c1.023,0.021,2.035-0.221,2.93-0.713c1.096-0.594,2.051-1.424,2.803-2.418c0.781-1.035,1.386-2.191,1.783-3.428 c0.461-1.416,0.711-2.898,0.748-4.389c0.033-1.496-0.146-2.984-0.537-4.419c-0.342-1.257-0.889-2.438-1.621-3.515 c-0.705-1.028-1.619-1.896-2.684-2.546C28.369,39.707,27.371,39.413,26.35,39.393z"></path></g><g><path fill="#222" d="M41.138,41.597c0.936-0.079,1.827-0.44,2.556-1.028c0.998-0.809,1.81-1.824,2.384-2.973 c0.604-1.209,1.025-2.504,1.242-3.848c0.265-1.616,0.327-3.26,0.184-4.889c-0.143-1.629-0.487-3.232-1.024-4.783 c-0.447-1.275-1.086-2.485-1.895-3.574c-0.764-1.027-1.74-1.883-2.861-2.511c-0.822-0.454-1.758-0.655-2.695-0.567 c-0.936,0.08-1.824,0.439-2.553,1.027c-0.998,0.81-1.81,1.816-2.384,2.967c-0.607,1.216-1.024,2.511-1.246,3.847 c-0.263,1.616-0.323,3.261-0.18,4.89c0.14,1.631,0.487,3.239,1.024,4.783c0.447,1.282,1.086,2.484,1.895,3.581 c0.762,1.028,1.74,1.884,2.861,2.505C39.264,41.477,40.203,41.676,41.138,41.597z"></path></g><g><path fill="#222" d="M62.779,78.797l-5.938-1.652c-3.992-1.102-8.209-1.102-12.201,0l-5.938,1.652c-2.364,0.807-4.983,0.219-6.77-1.523 c-2.619-2.559-2.672-6.746-0.117-9.365l15.217-15.904c0.053-0.055,0.106-0.107,0.16-0.16c2.047-1.964,5.297-1.89,7.256,0.16 l15.217,15.904c1.887,1.816,2.512,4.59,1.586,7.047C69.977,78.355,66.184,80.072,62.779,78.797z"></path></g><g><path fill="#222" d="M75.133,39.393c1.023-0.026,2.035,0.221,2.934,0.709c1.096,0.601,2.051,1.423,2.801,2.418 c0.783,1.035,1.385,2.196,1.785,3.426c0.457,1.424,0.711,2.906,0.744,4.396c0.037,1.488-0.143,2.976-0.533,4.421 c-0.342,1.248-0.889,2.438-1.621,3.506c-0.705,1.035-1.619,1.904-2.686,2.551c-0.875,0.527-1.873,0.822-2.895,0.848 c-1.023,0.021-2.035-0.221-2.934-0.713c-1.096-0.594-2.051-1.424-2.799-2.418c-0.781-1.035-1.387-2.191-1.783-3.428 c-0.461-1.416-0.711-2.898-0.748-4.389c-0.033-1.496,0.146-2.984,0.537-4.419c0.342-1.257,0.889-2.438,1.621-3.515 c0.701-1.028,1.617-1.896,2.682-2.546C73.113,39.707,74.111,39.413,75.133,39.393z"></path></g><g><path fill="#222" d="M60.344,41.597c-0.934-0.079-1.826-0.44-2.555-1.028c-0.998-0.809-1.809-1.824-2.383-2.973 c-0.605-1.209-1.025-2.504-1.246-3.848c-0.262-1.616-0.324-3.26-0.182-4.889c0.141-1.629,0.488-3.232,1.025-4.783 c0.447-1.275,1.086-2.485,1.895-3.574c0.762-1.027,1.74-1.883,2.861-2.511c0.818-0.454,1.758-0.655,2.693-0.567 c0.938,0.08,1.826,0.439,2.555,1.027c0.998,0.81,1.809,1.816,2.385,2.967c0.604,1.216,1.025,2.511,1.242,3.847 c0.268,1.616,0.326,3.261,0.184,4.89c-0.141,1.631-0.488,3.239-1.025,4.783c-0.447,1.282-1.086,2.484-1.895,3.581 c-0.764,1.028-1.738,1.884-2.861,2.505C62.215,41.477,61.279,41.676,60.344,41.597z"></path></g><path fill="#222" d="M99,50.422c0,26.65-21.605,48.251-48.26,48.251c-26.652,0-48.258-21.602-48.258-48.251c0-26.66,21.605-48.262,48.258-48.262 C77.395,2.161,99,23.762,99,50.422L99,50.422z M95.199,50.422c0-24.556-19.904-44.461-44.459-44.461 c-24.552,0-44.457,19.905-44.457,44.461c0,24.546,19.905,44.453,44.457,44.453C75.295,94.875,95.199,74.969,95.199,50.422 L95.199,50.422z"></path></svg>