<svg height="1024" width="1024" xmlns="http://www.w3.org/2000/svg" viewBox="0 0 512 512"><path fill="none" d="M120.69,139.56c25-17.49,51-28,73.56-34.32C157.07,48,94.24,19.3,71.13,11a10.25,10.25,0,0,0-12.95,5.85C13.6,126.72,40.84,223.55,40.84,223.55h0c7.91-9.5,17.62-21.15,29.4-35.26"></path><path fill="none" d="M71.13,11a10.25,10.25,0,0,0-12.95,5.85h0s55.18,36.68,88.63,106.94h0a251.41,251.41,0,0,1,47.44-18.57C157.07,48,94.24,19.3,71.13,11Z"></path><path fill="none" d="M443.3,188.29c44.23,53,59.24,71.3,59.24,71.3C502.54,501,256.77,501,256.77,501S11,501,11,259.59c0,0,15-18.34,59.24-71.3"></path><path fill="none" d="M146.81,123.8c56.28-29.06,110-28.06,110-28.06S327.75,94.42,392,139"></path><path fill="none" d="M392.85,139.56c-25-17.49-51-28-73.55-34.32C356.47,48,419.3,19.3,442.41,11a10.25,10.25,0,0,1,12.95,5.85c44.58,109.85,17.34,206.68,17.34,206.68h0c-7.91-9.5-17.61-21.15-29.4-35.26"></path><path fill="none" d="M442.41,11a10.25,10.25,0,0,1,12.95,5.85h0s-55.18,36.68-88.63,106.94h0a251.6,251.6,0,0,0-47.43-18.57C356.47,48,419.3,19.3,442.41,11Z"></path><line fill="none" x1="102.35" y1="322.71" x2="68.71" y2="317.63"></line><line fill="none" x1="70.14" y1="367.57" x2="103.78" y2="360.34"></line><line fill="none" x1="411.2" y1="322.71" x2="444.83" y2="317.63"></line><line fill="none" x1="443.4" y1="367.57" x2="409.76" y2="360.34"></line><path stroke="#000" stroke-linecap="round" stroke-linejoin="round" stroke-width="20px" d="M290.06,314.45c0,11.76-33.29,28.15-33.29,28.15s-33.29-16.39-33.29-28.15,14.91-13.17,33.29-13.17S290.06,302.69,290.06,314.45Z"></path><line fill="none" x1="256.77" y1="342.6" x2="256.77" y2="365.02"></line><path fill="none" d="M359,379.27c-11-19-29.84-19-40.9,0h0c-11.05,19-29.85,19-40.9,0h0c-11.05-19-29.85-19-40.9,0h0c-11,19-29.85,19-40.9,0h0c-11-19-29.85-19-40.9,0"></path><circle fill="none" cx="161.52" cy="271.27" r="37.24"></circle><circle stroke="#000" stroke-linecap="round" stroke-linejoin="round" stroke-width="20px" cx="153.28" cy="271.27" r="7.41" transform="translate(-145.95 358.12) rotate(-76.72)"></circle><circle fill="none" cx="352.75" cy="271.27" r="47.76"></circle><circle stroke="#000" stroke-linecap="round" stroke-linejoin="round" stroke-width="20px" cx="363.75" cy="266.72" r="13.34"></circle></svg>