<svg version="1.1" xmlns="http://www.w3.org/2000/svg" height="1024" width="1024" viewBox="0 0 1024 1024"><path d="M627.7376 170.0864C660.864 64.4096 698.0608 9.2672 739.3792 4.608c78.848-8.8576 289.5872 405.6832 186.624 627.6352-53.4016 115.0208-161.9968 117.4784-314.3936 117.504l-0.7424 0.0256h-253.3376a236.032 236.032 0 0 1-35.7632-2.7136c-93.5424-6.8096-162.048-30.7456-201.0368-114.816C17.7408 410.2912 228.5056-4.2496 307.3536 4.608c41.2928 4.6592 78.5152 59.8016 111.616 165.4784h208.768zM306.176 560.6656c58.5472 0 106.0096-37.248 106.0096-83.1488 0-45.9264-47.4624-83.1488-106.0096-83.1488-58.5728 0-106.0352 37.2224-106.0352 83.1488 0 45.9008 47.4624 83.1488 106.0352 83.1488z m450.6112 0c58.5472 0 106.0096-37.248 106.0096-83.1488 0-45.9264-47.4624-83.1488-106.0096-83.1488-58.5728 0-106.0352 37.2224-106.0352 83.1488 0 45.9008 47.4624 83.1488 106.0352 83.1488z"></path><path d="M187.6224 724.1728m137.2672 0l402.0224 0q137.2672 0 137.2672 137.2672l0 0.0256q0 137.2672-137.2672 137.2672l-402.0224 0q-137.2672 0-137.2672-137.2672l0-0.0256q0-137.2672 137.2672-137.2672Z"></path></svg>