<svg version="1.1" xmlns="http://www.w3.org/2000/svg" fill-rule="evenodd" clip-rule="evenodd" height="1024" width="1024" viewBox="0 0 1024 1024"><path d="M627.712 170.0864C660.864 64.4096 698.0864 9.2672 739.4048 4.608c78.848-8.8576 289.5872 405.6832 186.5984 627.6352-53.376 115.0208-161.9712 117.4784-314.368 117.504l-0.768 0.0256h-253.312a236.032 236.032 0 0 1-35.7888-2.7136c-93.5168-6.8096-162.0224-30.7456-201.0112-114.816C17.7408 410.2912 228.48-4.2496 307.328 4.608c41.3184 4.6592 78.5152 59.8016 111.6416 165.4784h208.768zM476.1344 502.272l-14.0544-26.2144c4.096-4.352 7.936-8.9088 11.6224-13.4656a12.8 12.8 0 0 0 0.6144-14.4384 7.3984 7.3984 0 0 0-5.504-3.6096c-2.048-0.256-4.0448 0.7424-5.7088 2.6368-111.7952 127.744-231.0912 3.3792-232.9088 0.7168a7.1168 7.1168 0 0 0-5.504-3.1232c-2.048 0-4.096 0.9728-5.7088 3.1232a13.2352 13.2352 0 0 0-0.2048 14.4384l0.4096 0.512c4.864 6.4768 9.984 12.4928 13.8496 16.5888l-12.2368 22.3744a12.9536 12.9536 0 0 0 1.4336 14.4128c3.456 3.3792 8.7552 2.4064 11.008-1.92l12.4416-22.1184c8.5504 7.936 21.5808 18.7648 37.4784 27.648l-8.3456 24.7808c-1.8432 5.0688 0 11.3152 3.6608 13.4912 1.2288 0.9472 2.6624 0.9472 3.456 0.9472 3.072 0 5.7088-2.4064 7.1424-6.2464l8.7552-25.984a126.4128 126.4128 0 0 0 41.1648 10.112v27.648c0 5.7856 3.4816 10.3424 7.7568 10.3424 4.2752 0 7.7312-4.5568 7.7312-10.3424v-27.904c7.1424-0.4864 14.2592-1.6896 21.8112-3.3536 7.7312-1.9456 15.488-4.8128 23.424-8.6784l9.3952 26.4704c1.408 3.584 4.0704 5.7856 6.912 5.7856 0.8192 0 2.2528 0 3.4816-0.9728 3.6608-2.6368 5.2992-8.4224 3.6608-13.4656l-8.7552-25.4976c12.032-7.2192 24.0384-16.6144 35.6608-27.6736l13.6448 25.4976c2.2272 4.5824 7.1424 6.2464 11.4176 1.92a14.6944 14.6944 0 0 0 1.024-14.4384z m391.296 0l-14.08-26.2144c4.096-4.352 7.9616-8.9088 11.6224-13.4656a12.8 12.8 0 0 0 0.6144-14.4384 7.3984 7.3984 0 0 0-5.504-3.6096c-2.048-0.256-4.0192 0.7424-5.7088 2.6368-111.7952 127.744-231.0656 3.3792-232.9088 0.7168a7.1168 7.1168 0 0 0-5.504-3.1232c-2.048 0-4.096 0.9728-5.7088 3.1232a13.2352 13.2352 0 0 0-0.2048 14.4384l0.4096 0.512c4.8896 6.4768 9.984 12.4928 13.8496 16.5888l-12.2112 22.3744a12.9536 12.9536 0 0 0 1.4336 14.4128c3.456 3.3792 8.7552 2.4064 11.008-1.92l12.416-22.1184c8.5504 7.936 21.6064 18.7648 37.504 27.648l-8.3712 24.7808c-1.8176 5.0688 0 11.3152 3.6864 13.4912 1.2032 0.9472 2.6368 0.9472 3.456 0.9472 3.072 0 5.7088-2.4064 7.1168-6.2464l8.7808-25.984a126.4128 126.4128 0 0 0 41.1648 10.112v27.648c0 5.7856 3.456 10.3424 7.7312 10.3424 4.2752 0 7.7568-4.5568 7.7568-10.3424v-27.904c7.1168-0.4864 14.2592-1.6896 21.7856-3.3536 7.7568-1.9456 15.488-4.8128 23.4496-8.6784l9.3696 26.4704c1.4336 3.584 4.096 5.7856 6.912 5.7856 0.8192 0 2.2528 0 3.4816-0.9728 3.6608-2.6368 5.2992-8.4224 3.6608-13.4656l-8.7552-25.4976c12.032-7.2192 24.064-16.6144 35.6608-27.6736l13.6448 25.4976c2.2528 4.5824 7.1424 6.2464 11.4176 1.92a14.6944 14.6944 0 0 0 1.024-14.4384z"></path><path d="M187.6224 724.1728m137.2672 0l402.0224 0q137.2672 0 137.2672 137.2672l0 0.0256q0 137.2672-137.2672 137.2672l-402.0224 0q-137.2672 0-137.2672-137.2672l0-0.0256q0-137.2672 137.2672-137.2672Z"></path></svg>